<?xml version="1.0" encoding="UTF-8" standalone="no"?>
<!-- Created with Inkscape (http://www.inkscape.org/) -->

<svg
   xmlns:dc="http://purl.org/dc/elements/1.1/"
   xmlns:cc="http://creativecommons.org/ns#"
   xmlns:rdf="http://www.w3.org/1999/02/22-rdf-syntax-ns#"
   xmlns:svg="http://www.w3.org/2000/svg"
   xmlns="http://www.w3.org/2000/svg"
   xmlns:sodipodi="http://sodipodi.sourceforge.net/DTD/sodipodi-0.dtd"
   xmlns:inkscape="http://www.inkscape.org/namespaces/inkscape"
   width="135.32564mm"
   height="97.28611mm"
   viewBox="0 0 135.32564 97.28611"
   version="1.1"
   id="svg8"
   inkscape:version="0.92.1 r15371"
   sodipodi:docname="binoculars.svg">
  <defs
     id="defs2" />
  <sodipodi:namedview
     id="base"
     pagecolor="#ffffff"
     bordercolor="#666666"
     borderopacity="1.0"
     inkscape:pageopacity="0.0"
     inkscape:pageshadow="2"
     inkscape:zoom="0.98994949"
     inkscape:cx="465.86876"
     inkscape:cy="-19.975873"
     inkscape:document-units="mm"
     inkscape:current-layer="layer1"
     showgrid="false"
     fit-margin-top="0"
     fit-margin-left="0"
     fit-margin-right="0"
     fit-margin-bottom="0"
     inkscape:window-width="1920"
     inkscape:window-height="1015"
     inkscape:window-x="0"
     inkscape:window-y="0"
     inkscape:window-maximized="1" />
  <metadata
     id="metadata5">
    <rdf:RDF>
      <cc:Work
         rdf:about="">
        <dc:format>image/svg+xml</dc:format>
        <dc:type
           rdf:resource="http://purl.org/dc/dcmitype/StillImage" />
        <dc:title></dc:title>
      </cc:Work>
    </rdf:RDF>
  </metadata>
  <g
     inkscape:label="Layer 1"
     inkscape:groupmode="layer"
     id="layer1"
     transform="translate(-0.757509,-0.06291665)">
    <path
       style="fill:#ffffff;stroke:none;stroke-width:0.26458332;stroke-opacity:1"
       d="m 25.76018,96.961971 c -2.547855,-0.39673 -6.325347,-1.58075 -8.472623,-2.65568 -4.358418,-2.18182 -8.8499524,-6.11692 -11.4611084,-10.04124 -5.68502696,-8.54408 -6.61466296,-18.4194 -2.654448,-28.19763 0.507601,-1.25333 2.832514,-7.65274 5.166474,-14.22092 2.3339594,-6.56817 4.7723704,-12.99506 5.4186904,-14.28196 3.167954,-6.30777 8.364758,-10.74418 15.102499,-12.89271 1.727404,-0.55083 1.875761,-0.65916 2.203868,-1.60916 1.559716,-4.5160114 2.820641,-6.6280514 5.259176,-8.8090724 7.440613,-6.65486 19.036894,-5.13489999 24.593584,3.223541 0.68545,1.03107 1.50873,2.5995014 1.82951,3.4854014 l 0.58323,1.61073 h 5.08584 5.08584 l 0.58323,-1.61073 c 1.31067,-3.6197214 4.36996,-7.1432024 7.72433,-8.8963624 4.95709,-2.59081999 10.11601,-2.66972999 15.04931,-0.2302 4.478928,2.21485 6.781318,5.113941 8.908618,11.2174524 0.32815,0.94148 0.48461,1.05385 2.32788,1.67192 6.79048,2.27693 12.20105,6.822 15.21533,12.7814 1.13865,2.25118 11.68819,31.95161 12.15932,34.23251 2.01696,9.76472 -0.99703,19.78283 -8.08385,26.86966 -4.54535,4.54535 -10.22075,7.41426 -16.55638,8.36923 -3.30926,0.49881 -5.66307,0.49494 -8.80428,-0.0145 -11.898688,-1.92965 -21.257668,-10.4847 -24.198958,-22.1203 l -0.58624,-2.31915 -0.90634,0.74603 c -2.02645,1.66799 -5.44502,2.93535 -7.91781,2.93535 -2.47279,0 -5.89136,-1.26736 -7.91781,-2.93534 l -0.90634,-0.74603 -0.58624,2.31915 c -3.76846,14.90784 -18.140921,24.47034 -33.244302,22.11861 z"
       id="path4496-6"
       inkscape:connector-curvature="0"
       sodipodi:nodetypes="ccccsscsscccccssccsscscccccscccc" />
    <path
       style="fill:#000000;stroke:none;stroke-width:0.26458332;stroke-opacity:1"
       d="m 25.760186,96.961971 c -2.547855,-0.39673 -6.325347,-1.58075 -8.472623,-2.65568 -4.358418,-2.18182 -8.8499524,-6.11692 -11.4611084,-10.04124 -5.68502696,-8.54407 -6.61466296,-18.41939 -2.654448,-28.19762 0.507601,-1.25333 2.832514,-7.65274 5.166474,-14.22092 2.3339594,-6.56817 4.7723704,-12.99506 5.4186904,-14.28196 3.167954,-6.30777 8.364758,-10.74418 15.102498,-12.89271 1.727406,-0.55083 1.875763,-0.65916 2.20387,-1.60916 1.559714,-4.5160104 2.820641,-6.6280504 5.259176,-8.8090704 7.440612,-6.65486 19.036897,-5.13489999 24.593577,3.22354 0.68545,1.03107 1.50873,2.5995004 1.82951,3.4854004 l 0.58323,1.61073 h 5.08584 5.08584 l 0.58323,-1.61073 c 1.31067,-3.6197204 4.36996,-7.1432004 7.72433,-8.8963604 4.95709,-2.59081999 10.11601,-2.66972999 15.04931,-0.2302 4.478928,2.21485 6.781318,5.11394 8.908618,11.2174504 0.32815,0.94148 0.48461,1.05385 2.32788,1.67192 6.79048,2.27693 12.20105,6.822 15.21533,12.7814 1.13865,2.25118 11.68819,31.95161 12.15932,34.2325 2.01696,9.76473 -0.99703,19.78284 -8.08385,26.86966 -4.54535,4.54535 -10.22075,7.41426 -16.55638,8.36923 -3.30926,0.49881 -5.66307,0.49494 -8.80428,-0.0145 -11.898688,-1.92965 -21.257668,-10.4847 -24.198958,-22.1203 l -0.58624,-2.31915 -0.90634,0.74603 c -2.02645,1.66799 -5.44502,2.93535 -7.91781,2.93535 -2.47279,0 -5.89136,-1.26736 -7.9178,-2.93534 l -0.90635,-0.74603 -0.58624,2.31915 c -3.76846,14.90784 -18.140914,24.47034 -33.244296,22.11861 z m 9.978649,-8.72523 c 7.1546,-1.91784 13.139957,-7.9383 15.117487,-15.20616 0.65118,-2.39321 0.65118,-8.19013 0,-10.58334 -1.99298,-7.32462 -7.947575,-13.27747 -15.249779,-15.24529 -2.180751,-0.58767 -7.367801,-0.65137 -9.789583,-0.12022 -6.926933,1.51923 -12.891516,6.77176 -15.251363,13.43067 -1.1392824,3.21477 -1.5045814,5.52495 -1.3280414,8.39866 0.200003,3.25566 0.691485,5.18605 2.0308404,7.97654 2.928937,6.1023 8.763556,10.54961 15.405167,11.74224 1.928719,0.34634 7.151673,0.11985 9.065272,-0.3931 z m 76.199995,0 c 7.1546,-1.91784 13.13995,-7.9383 15.11748,-15.20616 0.65118,-2.39321 0.65118,-8.19013 0,-10.58334 -1.62293,-5.96462 -5.8846,-11.11009 -11.39276,-13.75542 -3.32609,-1.59737 -5.02745,-1.9623 -9.14868,-1.9623 -4.12123,0 -5.82259,0.36493 -9.148688,1.9623 -4.32062,2.07501 -7.8234,5.57779 -9.8984,9.89841 -1.59738,3.32609 -1.9623,5.02745 -1.9623,9.14868 0,4.12123 0.36492,5.82259 1.9623,9.14869 2.93133,6.10367 8.76445,10.54966 15.405768,11.74224 1.92872,0.34634 7.15168,0.11985 9.06528,-0.3931 z M 70.089372,67.378011 c 2.71849,-1.13586 3.3812,-4.69982 1.26704,-6.81398 -2.97262,-2.97261 -7.84377,-0.31006 -7.0615,3.8598 0.4673,2.49095 3.36607,3.96883 5.79446,2.95418 z m -7.37695,-15.13613 c 5.14354,-2.54208 11.02464,-1.50313 14.89168,2.63075 l 1.57886,1.6878 0.71477,-1.55721 c 1.93525,-4.21614 6.3079,-9.2435 10.39611,-11.95271 7.87477,-5.21854 17.482958,-6.29332 26.400148,-2.95315 1.30565,0.48907 2.40911,0.85401 2.45212,0.811 0.043,-0.043 -0.63601,-2.1251 -1.50896,-4.62684 -1.87774,-5.38129 -3.11202,-7.61488 -5.53828,-10.02217 -3.17973,-3.15487 -6.44085,-4.65772 -11.2064,-5.16432 l -2.844268,-0.30236 v -2.54032 c 0,-4.61531 -1.2644,-7.15627 -4.33895,-8.7196304 -1.67209,-0.85023 -2.01877,-0.92819 -4.12772,-0.92819 -2.10894,0 -2.45562,0.078 -4.12771,0.92819 -3.12027,1.5866004 -4.33895,4.0890004 -4.33895,8.9094204 v 2.7301 h -12.7 -12.7 v -2.7301 c 0,-4.82042 -1.21868,-7.32282 -4.33895,-8.9094204 -1.67209,-0.85023 -2.01877,-0.92819 -4.127713,-0.92819 -2.108943,0 -2.455621,0.078 -4.127716,0.92819 -3.07975,1.5660004 -4.33895,4.1026404 -4.33895,8.7407404 v 2.56143 l -2.26601,0.18386 c -2.980238,0.24181 -5.851536,0.99558 -7.866967,2.06522 -2.182941,1.15854 -5.012881,3.87185 -6.265422,6.00718 -0.87862,1.49788 -2.519077,5.55895 -4.251459,10.52482 l -0.480761,1.3781 1.371039,-0.55255 c 9.320554,-3.75632 19.342779,-2.80597 27.513946,2.60899 4.088213,2.70921 8.460853,7.73657 10.396103,11.95271 l 0.71477,1.55721 1.57887,-1.6878 c 1.12116,-1.19853 2.13195,-1.96116 3.48677,-2.63075 z"
       id="path4496"
       inkscape:connector-curvature="0" />
  </g>
</svg>
