<?xml version="1.0" encoding="UTF-8" standalone="no"?>
<!-- Created with Inkscape (http://www.inkscape.org/) -->

<svg
   xmlns:dc="http://purl.org/dc/elements/1.1/"
   xmlns:cc="http://creativecommons.org/ns#"
   xmlns:rdf="http://www.w3.org/1999/02/22-rdf-syntax-ns#"
   xmlns:svg="http://www.w3.org/2000/svg"
   xmlns="http://www.w3.org/2000/svg"
   xmlns:sodipodi="http://sodipodi.sourceforge.net/DTD/sodipodi-0.dtd"
   xmlns:inkscape="http://www.inkscape.org/namespaces/inkscape"
   width="5.2300682mm"
   height="5.3029184mm"
   viewBox="0 0 5.2300682 5.3029185"
   version="1.1"
   id="svg8"
   sodipodi:docname="buoy.svg"
   inkscape:version="0.92.1 r15371">
  <defs
     id="defs2" />
  <sodipodi:namedview
     id="base"
     pagecolor="#ffffff"
     bordercolor="#666666"
     borderopacity="1.0"
     inkscape:pageopacity="0.0"
     inkscape:pageshadow="2"
     inkscape:zoom="45.254834"
     inkscape:cx="5.209413"
     inkscape:cy="10.741134"
     inkscape:document-units="mm"
     inkscape:current-layer="layer1"
     showgrid="false"
     showguides="true"
     inkscape:guide-bbox="true"
     fit-margin-top="0"
     fit-margin-left="0"
     fit-margin-right="0"
     fit-margin-bottom="0"
     inkscape:window-width="1920"
     inkscape:window-height="1015"
     inkscape:window-x="0"
     inkscape:window-y="0"
     inkscape:window-maximized="1" />
  <metadata
     id="metadata5">
    <rdf:RDF>
      <cc:Work
         rdf:about="">
        <dc:format>image/svg+xml</dc:format>
        <dc:type
           rdf:resource="http://purl.org/dc/dcmitype/StillImage" />
        <dc:title></dc:title>
      </cc:Work>
    </rdf:RDF>
  </metadata>
  <g
     inkscape:label="Layer 1"
     inkscape:groupmode="layer"
     id="layer1"
     transform="translate(-68.633129,-116.70685)">
    <path
       style="fill:#ffff00;fill-opacity:1;stroke:#000000;stroke-width:0.26458332;stroke-miterlimit:4;stroke-dasharray:none;stroke-opacity:1"
       d="m 71.212569,116.83976 c -1.075072,0.0246 -1.947711,0.83821 -2.075326,1.87637 -0.123148,0.004 -0.233126,-0.0161 -0.297656,0.062 -0.09633,0.11656 -0.09908,0.33353 -0.0067,0.4532 0.06573,0.0853 0.156035,0.0785 0.313159,0.0775 0.08057,0.52262 0.349861,0.98198 0.735356,1.30741 0.376888,0.31818 1.365808,1.21595 1.365808,1.21595 0,0 1.023383,-0.90395 1.391646,-1.21388 0.386805,-0.32554 0.6569,-0.78533 0.73794,-1.30742 0.120868,-5.3e-4 0.237209,-0.0186 0.297139,-0.1049 0.07717,-0.11131 0.07706,-0.30009 -0.0072,-0.40618 -0.06136,-0.078 -0.161643,-0.0687 -0.286804,-0.0724 -0.156313,-1.06133 -1.076992,-1.91273 -2.167309,-1.88773 z m 0.05943,3.33106 c 0.231158,4e-5 0.418538,0.18742 0.418579,0.41858 -4.1e-5,0.23116 -0.187421,0.41854 -0.418579,0.41858 -0.231158,-4e-5 -0.418539,-0.18742 -0.418579,-0.41858 4e-5,-0.23116 0.187421,-0.41854 0.418579,-0.41858 z"
       id="path4520"
       inkscape:connector-curvature="0"
       sodipodi:nodetypes="ccccccccccccccccccc" />
    <path
       style="fill:none;fill-rule:evenodd;stroke:#000000;stroke-width:0.13229167;stroke-linecap:butt;stroke-linejoin:miter;stroke-miterlimit:4;stroke-dasharray:none;stroke-opacity:1"
       d="m 69.146029,119.30886 4.230749,0.002"
       id="path4561"
       inkscape:connector-type="polyline"
       inkscape:connector-curvature="0" />
    <path
       style="fill:none;fill-rule:evenodd;stroke:#000000;stroke-width:0.13229167;stroke-linecap:butt;stroke-linejoin:miter;stroke-miterlimit:4;stroke-dasharray:none;stroke-opacity:1"
       d="m 69.137243,118.71613 4.242688,0.0113"
       id="path4565"
       inkscape:connector-type="polyline"
       inkscape:connector-curvature="0" />
  </g>
</svg>
