<?xml version="1.0" encoding="UTF-8" standalone="no"?>
<!-- Created with Inkscape (http://www.inkscape.org/) -->

<svg
   xmlns:dc="http://purl.org/dc/elements/1.1/"
   xmlns:cc="http://creativecommons.org/ns#"
   xmlns:rdf="http://www.w3.org/1999/02/22-rdf-syntax-ns#"
   xmlns:svg="http://www.w3.org/2000/svg"
   xmlns="http://www.w3.org/2000/svg"
   xmlns:sodipodi="http://sodipodi.sourceforge.net/DTD/sodipodi-0.dtd"
   xmlns:inkscape="http://www.inkscape.org/namespaces/inkscape"
   width="17.842619"
   height="20.001459"
   viewBox="0 0 4.7208596 5.2920527"
   version="1.1"
   id="svg8"
   inkscape:version="0.92.1 r15371"
   sodipodi:docname="fishing.svg">
  <defs
     id="defs2" />
  <sodipodi:namedview
     id="base"
     pagecolor="#ffffff"
     bordercolor="#666666"
     borderopacity="1.0"
     inkscape:pageopacity="0.0"
     inkscape:pageshadow="2"
     inkscape:zoom="2.8"
     inkscape:cx="-96.833439"
     inkscape:cy="-41.321136"
     inkscape:document-units="mm"
     inkscape:current-layer="layer1"
     showgrid="false"
     inkscape:window-width="1920"
     inkscape:window-height="1015"
     inkscape:window-x="0"
     inkscape:window-y="0"
     inkscape:window-maximized="1"
     fit-margin-top="0"
     fit-margin-left="0"
     fit-margin-right="0"
     fit-margin-bottom="0"
     units="px" />
  <metadata
     id="metadata5">
    <rdf:RDF>
      <cc:Work
         rdf:about="">
        <dc:format>image/svg+xml</dc:format>
        <dc:type
           rdf:resource="http://purl.org/dc/dcmitype/StillImage" />
        <dc:title></dc:title>
      </cc:Work>
    </rdf:RDF>
  </metadata>
  <g
     inkscape:label="Layer 1"
     inkscape:groupmode="layer"
     id="layer1"
     transform="translate(-81.168035,-194.05326)">
    <path
       style="fill:#ffffff;stroke:#000000;stroke-width:0.26458332;stroke-miterlimit:4;stroke-dasharray:none;stroke-opacity:1"
       d="m 82.743924,199.16855 c 0.07728,-0.0178 0.13012,-0.045 0.146228,-0.0751 0.03557,-0.0665 0.0066,-0.4214 -0.04905,-0.60008 -0.101752,-0.32693 -0.402238,-0.69033 -0.690136,-0.83464 l -0.133024,-0.0667 -0.072,0.0532 c -0.160337,0.11855 -0.488835,0.54473 -0.600833,0.77951 0,0 -0.04193,0.10457 -0.04453,0.16352 -0.0026,0.0589 0.03259,0.18164 0.03259,0.18164 0.115159,0.22343 0.166603,0.31989 0.846155,0.43653 0.09173,0.0157 0.430614,-0.007 0.5646,-0.038 z m -0.784549,-0.46231 c -0.05367,-0.0593 -0.04875,-0.13428 0.01256,-0.1914 0.06184,-0.0576 0.08646,-0.0594 0.15508,-0.0113 0.06212,0.0435 0.07022,0.15391 0.01532,0.20881 -0.0496,0.0496 -0.135158,0.0468 -0.182963,-0.006 z m 1.393101,0.2115 c 0.292631,-0.14369 0.431497,-0.24095 0.745074,-0.52184 0.214077,-0.19176 0.344113,-0.25867 0.502102,-0.25834 0.135025,2.7e-4 0.338078,0.0903 0.393062,0.17418 0.05661,0.0864 0.0777,0.0572 0.05633,-0.078 -0.03147,-0.19907 -0.130543,-0.3409 -0.304137,-0.43538 -0.06478,-0.0353 -0.117784,-0.0742 -0.117784,-0.0866 0,-0.0124 0.02503,-0.0622 0.05563,-0.11066 0.141606,-0.22432 0.284185,-0.58755 0.343825,-0.87594 0.046,-0.22244 0.07503,-0.9327 0.05844,-1.43017 l -0.0159,-0.47694 0.0624,-0.12754 c 0.0909,-0.1858 0.254823,-0.28678 0.5371,-0.33088 0.04855,-0.008 0.08814,-0.0213 0.088,-0.0304 -1.78e-4,-0.009 -0.07126,-0.0469 -0.158037,-0.084 -0.140498,-0.06 -0.178486,-0.0663 -0.346902,-0.0574 -0.163138,0.009 -0.212743,0.0224 -0.360984,0.10039 -0.09452,0.0497 -0.202537,0.12761 -0.240035,0.17311 -0.05157,0.0626 -0.07564,0.0766 -0.09881,0.0575 -0.01685,-0.0139 -0.09357,-0.0434 -0.170483,-0.0657 -0.180229,-0.0522 -0.389801,-0.0346 -0.562821,0.0472 -0.123562,0.0585 -0.308166,0.22963 -0.367784,0.34103 -0.02581,0.0482 -0.02465,0.0532 0.0093,0.0402 0.205755,-0.0789 0.381765,-0.11465 0.497992,-0.10099 0.255639,0.03 0.468363,0.14806 0.589961,0.32728 0.06407,0.0944 0.06718,0.11109 0.06458,0.34634 -0.0023,0.20831 -0.01424,0.28227 -0.07598,0.47073 -0.1843,0.5626 -0.556048,0.88042 -1.186523,1.01438 -0.07452,0.0158 -0.142289,0.022 -0.150612,0.0137 -0.02866,-0.0287 -0.03705,-0.35749 -0.01147,-0.4501 0.01409,-0.051 0.02202,-0.0964 0.01761,-0.10079 -0.0044,-0.004 -0.06065,0.0336 -0.124995,0.0845 -0.161781,0.12788 -0.27595,0.29226 -0.344621,0.49618 l -0.05824,0.17296 -0.27452,0.17092 c -0.150985,0.094 -0.280054,0.17647 -0.286819,0.18323 -0.0068,0.007 0.03374,0.0356 0.09001,0.0641 0.459188,0.2327 0.792979,0.77562 0.803131,1.30633 0.0024,0.12351 0.01209,0.17498 0.03308,0.17498 0.01635,0 0.155764,-0.0619 0.309801,-0.13752 z"
       id="path4496-3"
       inkscape:connector-curvature="0"
       sodipodi:nodetypes="ccsscsczcsccccccccsccccsscccccccccccccccsccccccccscccccsc" />
  </g>
</svg>
