<?xml version="1.0" encoding="UTF-8" standalone="no"?>
<!-- Created with Inkscape (http://www.inkscape.org/) -->

<svg
   xmlns:dc="http://purl.org/dc/elements/1.1/"
   xmlns:cc="http://creativecommons.org/ns#"
   xmlns:rdf="http://www.w3.org/1999/02/22-rdf-syntax-ns#"
   xmlns:svg="http://www.w3.org/2000/svg"
   xmlns="http://www.w3.org/2000/svg"
   xmlns:sodipodi="http://sodipodi.sourceforge.net/DTD/sodipodi-0.dtd"
   xmlns:inkscape="http://www.inkscape.org/namespaces/inkscape"
   width="27.26549mm"
   height="27.265488mm"
   viewBox="0 0 27.26549 27.265488"
   version="1.1"
   id="svg5429"
   inkscape:version="0.92.1 r15371"
   sodipodi:docname="RD logo.svg">
  <defs
     id="defs5423" />
  <sodipodi:namedview
     id="base"
     pagecolor="#ffffff"
     bordercolor="#666666"
     borderopacity="1.0"
     inkscape:pageopacity="0.0"
     inkscape:pageshadow="2"
     inkscape:zoom="5.6"
     inkscape:cx="47.8319"
     inkscape:cy="47.411834"
     inkscape:document-units="mm"
     inkscape:current-layer="layer1"
     showgrid="false"
     fit-margin-top="0"
     fit-margin-left="0"
     fit-margin-right="0"
     fit-margin-bottom="0"
     inkscape:window-width="1920"
     inkscape:window-height="1015"
     inkscape:window-x="0"
     inkscape:window-y="0"
     inkscape:window-maximized="1" />
  <metadata
     id="metadata5426">
    <rdf:RDF>
      <cc:Work
         rdf:about="">
        <dc:format>image/svg+xml</dc:format>
        <dc:type
           rdf:resource="http://purl.org/dc/dcmitype/StillImage" />
        <dc:title></dc:title>
      </cc:Work>
    </rdf:RDF>
  </metadata>
  <g
     inkscape:label="Layer 1"
     inkscape:groupmode="layer"
     id="layer1"
     transform="translate(-26.432731,-24.075589)">
    <path
       inkscape:connector-curvature="0"
       id="path626"
       style="fill:#138336;fill-opacity:1;fill-rule:nonzero;stroke:none;stroke-width:0.03527778"
       d="m 44.716851,35.123883 c 0.11254,-0.129469 0.15028,-0.237067 0.32738,-0.280105 0.15205,-0.03563 0.31573,-0.0046 0.369,-0.184856 -0.10583,-0.03704 -0.1344,-0.0314 -0.24271,-0.05362 0.0632,-0.0635 0.26106,-0.09137 0.23425,-0.207434 -0.40499,-0.03634 -0.67628,-0.216252 -0.92922,-0.388055 -0.31362,-0.212019 -0.89182,-0.838905 -1.26153,-1.550105 -0.031,-0.06033 -0.0737,-0.12947 -0.1203,-0.201789 0.12771,-0.166511 0.25576,-0.413103 0.20849,-0.716139 0,0 -0.18697,0.359833 -0.3944,0.452967 -0.001,-0.0021 -0.003,-0.0028 -0.004,-0.0063 0.11606,-0.180622 0.25788,-0.492125 0.14005,-0.8382 0,0 -0.15205,0.486833 -0.37994,0.548216 -0.001,0 -0.001,3.44e-4 -0.002,3.44e-4 -0.005,-0.0049 -0.008,-0.0092 -0.0123,-0.01093 0.0529,-0.103716 0.2413,-0.523169 0.005,-0.892175 0,0 -0.0303,0.45085 -0.21238,0.551039 -0.0434,0.02293 -0.0702,0.03845 -0.0882,0.05009 -0.01,-0.0074 -0.0191,-0.01552 -0.0279,-0.02152 0.0155,-0.12453 0.0406,-0.523875 -0.2667,-0.769408 0,0 0.10513,0.4064 -0.0198,0.548217 -0.0102,0.01129 -0.0162,0.01905 -0.024,0.02681 -0.0268,-0.0099 -0.0547,-0.01976 -0.085,-0.02893 0.005,-0.08467 0.0109,-0.4445 -0.31256,-0.619831 0,0 0.12206,0.375709 -0.0526,0.500592 -0.0169,0.01093 -0.0303,0.01976 -0.0434,0.02963 -0.0261,-0.0049 -0.0526,-0.0095 -0.078,-0.01305 7.2e-4,-0.08819 -0.0194,-0.366536 -0.28469,-0.498122 0,0 0.11642,0.312561 -0.0272,0.423686 -0.0148,0.0099 -0.0272,0.01905 -0.0381,0.02893 -0.0159,-0.0021 -0.0321,-0.0039 -0.048,-0.0056 -0.003,-0.08502 -0.0325,-0.367948 -0.30586,-0.488598 0,0 0.12912,0.306917 -0.008,0.424392 -0.0162,0.0127 -0.0296,0.02293 -0.0406,0.03316 -0.0208,-0.0018 -0.0406,-0.0042 -0.0607,-0.0042 -0.005,-0.08678 -0.0406,-0.315031 -0.26705,-0.413808 0,0 0.11359,0.269522 -0.007,0.370064 -0.012,0.01058 -0.0215,0.0187 -0.031,0.02752 -0.0215,-0.0011 -0.0423,-0.0021 -0.0607,-0.0021 -0.004,0 -0.0102,0 -0.0145,0 -0.0201,-0.09102 -0.085,-0.264584 -0.28116,-0.325614 0,0 0.11818,0.214841 0.0395,0.323497 -0.025,0.0011 -0.0526,0.0011 -0.0797,0.0021 -0.0201,-0.09243 -0.0836,-0.264583 -0.28082,-0.325614 0,0 0.12277,0.219781 0.037,0.329495 -0.0416,0.0011 -0.0797,0.0011 -0.12241,0.0035 -0.0198,-0.0575 -0.11606,-0.277637 -0.36371,-0.297745 0,0 0.16086,0.180975 0.11077,0.306917 -0.42404,0.01799 -0.90558,0.04904 -1.36208,0.101247 -0.242,0.02716 -0.54116,0.08784 -0.74436,0.218722 -0.0571,0.212725 0.14499,0.215195 0.14076,0.37712 -0.006,0.20955 -0.30621,0.2921 -0.42404,0.449086 -0.16263,0.216253 -0.13688,0.458258 -0.0635,0.814564 0.0818,0.40393 0.33444,0.844197 0.65829,0.979311 0.16122,0.06809 0.39899,0.141111 0.33478,0.271285 -0.055,0.108303 -0.48718,0 -0.87559,-0.234949 -0.15773,-0.09456 -0.41737,-0.358081 -0.57647,-0.440631 -0.46532,-0.24765 -0.59408,0.231422 -0.65864,0.512939 -0.11113,0.491419 -0.0494,1.31198 0.0681,1.6637 0.061,0.185208 0.23812,0.292805 0.47237,0.256469 0.39722,-0.06315 0.68509,-0.780344 1.18215,-0.837847 0.18662,-0.02117 0.24271,0.04445 0.18909,0.144286 -0.15416,0.28328 -0.27234,0.385939 -0.39581,0.566561 -0.11642,0.169333 -0.25824,0.289631 -0.31645,0.487539 -0.0818,0.279753 -0.0131,0.704144 0.21555,0.879122 0.34361,0.263525 0.55986,0.353483 0.97437,0.311856 0.44203,-0.04516 0.67275,-0.118181 0.97367,-0.252237 0.0381,-0.01799 0.13582,-0.05362 0.25788,-0.09807 0.067,0.29457 -0.22789,0.49142 -0.28892,0.548922 -0.0473,0.04375 0.0131,0.09666 0.0741,0.06597 0.47977,-0.26917 0.81773,-0.696383 0.87206,-0.722136 0.0138,0.161219 -0.0335,0.229658 -0.0674,0.311503 -0.0339,0.08043 0.0353,0.113947 0.0833,0.07267 0.17921,-0.156986 0.34149,-0.48507 0.39406,-0.652992 0.29386,-0.09737 0.5842,-0.178505 0.89499,-0.192969 0.25083,-0.01235 0.51082,-0.0314 0.76482,-0.06703 -0.0702,0.218369 -0.23177,0.266347 -0.27446,0.463197 -0.0483,0.216606 0.12983,0.487539 0.16052,0.636058 0.042,0.187325 0.008,0.334787 0.0258,0.552098 0.0134,0.174977 0.2032,0.08855 0.30056,0.01058 0.41981,-0.338314 0.36513,-1.095728 0.29422,-1.559631 -0.0109,-0.07549 -0.007,-0.146755 -10e-4,-0.201436 0.7359,-0.195438 1.52294,-0.586669 2.12443,-1.272116" />
    <path
       inkscape:connector-curvature="0"
       id="path628"
       style="fill:#138336;fill-opacity:1;fill-rule:nonzero;stroke:none;stroke-width:0.03527778"
       d="m 44.054691,46.382786 -3.828,-5.739695 h -0.0519 l -3.04447,-0.006 -0.0113,5.732992 -3.94123,-0.0074 0.0332,-17.913702 8.18974,0.01447 c 2.26836,0.0046 4.00755,0.61348 5.21758,1.827036 1.022,1.025172 1.53035,2.39148 1.52753,4.09716 v 0.05151 c -0.003,1.450623 -0.35913,2.63137 -1.06857,3.542242 -0.70943,0.912283 -1.63689,1.579386 -2.78059,2.003778 l 4.36457,6.406444 z m -3.98921,-22.307197 c -7.52899,0 -13.63275,6.103056 -13.63275,13.632744 0,7.52863 6.10376,13.632743 13.63275,13.632743 7.52898,0 13.63274,-6.104113 13.63274,-13.632743 0,-7.529688 -6.10376,-13.632744 -13.63274,-13.632744" />
  </g>
</svg>
