<?xml version="1.0" encoding="UTF-8" standalone="no"?>
<!-- Created with Inkscape (http://www.inkscape.org/) -->

<svg
   xmlns:dc="http://purl.org/dc/elements/1.1/"
   xmlns:cc="http://creativecommons.org/ns#"
   xmlns:rdf="http://www.w3.org/1999/02/22-rdf-syntax-ns#"
   xmlns:svg="http://www.w3.org/2000/svg"
   xmlns="http://www.w3.org/2000/svg"
   xmlns:sodipodi="http://sodipodi.sourceforge.net/DTD/sodipodi-0.dtd"
   xmlns:inkscape="http://www.inkscape.org/namespaces/inkscape"
   width="4.2197309mm"
   height="5.0271316mm"
   viewBox="0 0 4.2197309 5.0271314"
   version="1.1"
   id="svg5680"
   inkscape:version="0.92.1 r15371"
   sodipodi:docname="mpa.svg">
  <defs
     id="defs5674" />
  <sodipodi:namedview
     id="base"
     pagecolor="#ffffff"
     bordercolor="#666666"
     borderopacity="1.0"
     inkscape:pageopacity="0.0"
     inkscape:pageshadow="2"
     inkscape:zoom="0.98994949"
     inkscape:cx="21.542193"
     inkscape:cy="-117.79546"
     inkscape:document-units="mm"
     inkscape:current-layer="layer1"
     showgrid="false"
     fit-margin-top="0"
     fit-margin-left="0"
     fit-margin-right="0"
     fit-margin-bottom="0"
     inkscape:window-width="1920"
     inkscape:window-height="1015"
     inkscape:window-x="0"
     inkscape:window-y="0"
     inkscape:window-maximized="1" />
  <metadata
     id="metadata5677">
    <rdf:RDF>
      <cc:Work
         rdf:about="">
        <dc:format>image/svg+xml</dc:format>
        <dc:type
           rdf:resource="http://purl.org/dc/dcmitype/StillImage" />
        <dc:title></dc:title>
      </cc:Work>
    </rdf:RDF>
  </metadata>
  <g
     inkscape:label="Layer 1"
     inkscape:groupmode="layer"
     id="layer1"
     transform="translate(-53.04552,-93.507809)">
    <path
       style="fill:#008dec;fill-opacity:1;stroke-width:0.01258209"
       d="m 55.083838,98.527982 c -0.169297,-0.04557 -0.748542,-0.38847 -1.014344,-0.600466 -0.514287,-0.410181 -0.800785,-0.778306 -0.946726,-1.216461 -0.08049,-0.241645 -0.07723,-0.172543 -0.07723,-1.638084 v -1.333702 l 0.0274,-0.05119 c 0.01507,-0.02815 0.05022,-0.07181 0.07812,-0.09701 0.100051,-0.09039 -0.02515,-0.08537 2.034219,-0.08163 l 1.848789,0.0034 0.05202,0.02782 c 0.06158,0.03294 0.122733,0.09157 0.152806,0.146515 0.02003,0.03659 0.0219,0.138171 0.02502,1.353797 0.0037,1.458899 0.0057,1.41751 -0.07948,1.672141 -0.124983,0.373545 -0.348105,0.693028 -0.708899,1.015052 -0.253316,0.226096 -0.482385,0.390568 -0.805199,0.578136 -0.334882,0.194579 -0.481468,0.249996 -0.586495,0.221725 z m 0.518343,-1.63781 c 0.391564,-0.04366 0.694675,-0.207408 0.752567,-0.406551 0.01753,-0.06031 0.01852,-0.0821 0.0061,-0.134017 -0.05882,-0.245207 -0.451709,-0.429513 -0.918385,-0.430825 -0.167846,-4.75e-4 -0.268046,0.0164 -0.438587,0.07384 -0.13056,0.04398 -0.409152,0.179022 -0.558594,0.270775 l -0.122725,0.07535 -0.185536,-0.150228 -0.185536,-0.150229 -0.0035,0.188116 c -0.0019,0.103464 -0.0019,0.269319 0,0.368568 l 0.0035,0.180451 0.186511,-0.14928 0.186512,-0.149279 0.09659,0.06028 c 0.367626,0.229433 0.719429,0.358671 0.993556,0.364991 0.0366,8.46e-4 0.121009,-0.0045 0.187567,-0.01196 z m -1.61544,-1.967659 c 0.176825,-0.04225 0.333884,-0.17449 0.490022,-0.41259 0.03517,-0.05363 0.06725,-0.09727 0.07129,-0.09697 0.004,2.85e-4 0.02961,0.03479 0.05684,0.07665 0.104222,0.160239 0.293974,0.335622 0.426559,0.394258 0.206177,0.09118 0.377625,0.06528 0.570725,-0.08623 0.08472,-0.06647 0.261082,-0.278219 0.296536,-0.356031 0.0073,-0.01605 0.01664,-0.02904 0.02071,-0.02886 0.0041,1.9e-4 0.02723,0.0297 0.05145,0.0656 0.21718,0.32192 0.499613,0.495637 0.732705,0.450667 0.09273,-0.01789 0.201412,-0.06899 0.272771,-0.128255 l 0.05097,-0.04233 2.38e-4,-0.477309 c 2.38e-4,-0.472899 -2.5e-5,-0.477577 -0.02713,-0.506429 l -0.02736,-0.02912 h -1.814234 -1.814222 l -0.03315,0.02608 -0.03315,0.02608 v 0.386708 0.386706 l 0.09905,0.102295 c 0.100801,0.104104 0.236661,0.202098 0.316161,0.228041 0.131838,0.04302 0.18521,0.04685 0.293224,0.02105 z"
       id="path6240"
       inkscape:connector-curvature="0" />
    <path
       style="fill:#000000;stroke-width:0.26458335"
       d=""
       id="path6238"
       inkscape:connector-curvature="0" />
    <path
       style="fill:#000000;stroke-width:0.26458335"
       d=""
       id="path6236"
       inkscape:connector-curvature="0" />
  </g>
</svg>
