<?xml version="1.0" encoding="UTF-8" standalone="no"?>
<!-- Created with Inkscape (http://www.inkscape.org/) -->

<svg
   xmlns:dc="http://purl.org/dc/elements/1.1/"
   xmlns:cc="http://creativecommons.org/ns#"
   xmlns:rdf="http://www.w3.org/1999/02/22-rdf-syntax-ns#"
   xmlns:svg="http://www.w3.org/2000/svg"
   xmlns="http://www.w3.org/2000/svg"
   xmlns:sodipodi="http://sodipodi.sourceforge.net/DTD/sodipodi-0.dtd"
   xmlns:inkscape="http://www.inkscape.org/namespaces/inkscape"
   width="84.233452mm"
   height="13.824336mm"
   viewBox="0 0 84.233452 13.824336"
   version="1.1"
   id="svg6051"
   inkscape:version="0.92.1 r15371"
   sodipodi:docname="RD logo text.svg">
  <defs
     id="defs6045" />
  <sodipodi:namedview
     id="base"
     pagecolor="#ffffff"
     bordercolor="#666666"
     borderopacity="1.0"
     inkscape:pageopacity="0.0"
     inkscape:pageshadow="2"
     inkscape:zoom="0.35"
     inkscape:cx="489.18132"
     inkscape:cy="-319.58955"
     inkscape:document-units="mm"
     inkscape:current-layer="layer1"
     showgrid="false"
     fit-margin-top="0"
     fit-margin-left="0"
     fit-margin-right="0"
     fit-margin-bottom="0"
     inkscape:window-width="1920"
     inkscape:window-height="1015"
     inkscape:window-x="0"
     inkscape:window-y="0"
     inkscape:window-maximized="1" />
  <metadata
     id="metadata6048">
    <rdf:RDF>
      <cc:Work
         rdf:about="">
        <dc:format>image/svg+xml</dc:format>
        <dc:type
           rdf:resource="http://purl.org/dc/dcmitype/StillImage" />
        <dc:title></dc:title>
      </cc:Work>
    </rdf:RDF>
  </metadata>
  <g
     inkscape:label="Layer 1"
     inkscape:groupmode="layer"
     id="layer1"
     transform="translate(132.83101,-50.450929)">
    <path
       inkscape:connector-curvature="0"
       id="path554"
       style="fill:#138336;fill-opacity:1;fill-rule:nonzero;stroke:none;stroke-width:0.03527778"
       d="m -129.10991,54.575251 c 0.4452,0 0.78669,-0.105128 1.02517,-0.316089 0.23812,-0.210609 0.35736,-0.492125 0.35736,-0.843492 v -0.02364 c 0,-0.390525 -0.12488,-0.683683 -0.375,-0.878769 -0.24977,-0.195087 -0.59761,-0.293159 -1.04246,-0.293159 h -1.79317 v 2.355145 z m -3.63256,-3.983567 h 3.74968 c 1.03893,0 1.8355,0.277283 2.39042,0.83185 0.46884,0.468489 0.70309,1.093964 0.70309,1.874661 v 0.02363 c 0,0.664281 -0.16228,1.205089 -0.48648,1.622778 -0.32385,0.418042 -0.74789,0.724605 -1.27141,0.920044 l 2.00377,2.929467 h -2.1089 l -1.75789,-2.625019 h -1.41782 v 2.625019 h -1.80446 v -8.202435" />
    <path
       inkscape:connector-curvature="0"
       id="path556"
       style="fill:#138336;fill-opacity:1;fill-rule:nonzero;stroke:none;stroke-width:0.03527778"
       d="m -124.27086,50.591684 h 6.17537 v 1.605139 h -4.3942 v 1.664053 h 3.8668 v 1.605491 h -3.8668 v 1.722261 h 4.45277 v 1.605492 h -6.23394 v -8.202436" />
    <path
       inkscape:connector-curvature="0"
       id="path558"
       style="fill:#138336;fill-opacity:1;fill-rule:nonzero;stroke:none;stroke-width:0.03527778"
       d="m -116.41979,50.591684 h 6.17537 v 1.605139 h -4.3942 v 1.664053 h 3.8668 v 1.605491 h -3.8668 v 1.722261 h 4.45277 v 1.605492 h -6.23394 v -8.202436" />
    <path
       inkscape:connector-curvature="0"
       id="path560"
       style="fill:#138336;fill-opacity:1;fill-rule:nonzero;stroke:none;stroke-width:0.03527778"
       d="m -108.56872,50.591684 h 6.24558 v 1.628422 h -4.44112 v 1.769533 h 3.91371 v 1.628775 h -3.91371 v 3.175706 h -1.80446 v -8.202436" />
    <path
       inkscape:connector-curvature="0"
       id="path562"
       style="fill:#34bde6;fill-opacity:1;fill-rule:nonzero;stroke:none;stroke-width:0.03527778"
       d="m -97.859094,57.938634 c 0.516114,0 0.98425,-0.08184 1.406173,-0.246239 0.422275,-0.163689 0.779285,-0.390172 1.072443,-0.67945 0.292807,-0.288925 0.51929,-0.630414 0.67945,-1.025525 0.16016,-0.394053 0.240242,-0.817739 0.240242,-1.271411 v -0.02328 c 0,-0.452967 -0.08008,-0.876653 -0.240242,-1.271412 -0.16016,-0.394405 -0.386643,-0.738011 -0.67945,-1.030816 -0.293158,-0.293158 -0.650168,-0.523522 -1.072443,-0.691797 -0.421923,-0.16757 -0.890059,-0.251884 -1.406173,-0.251884 h -1.921582 v 6.491817 z m -2.847266,-7.34695 h 2.847266 c 0.640643,0 1.228373,0.103364 1.763535,0.310445 0.535165,0.20708 0.996246,0.493888 1.383241,0.86113 0.386292,0.367594 0.685097,0.798689 0.896057,1.294694 0.21096,0.496359 0.316442,1.033286 0.316442,1.611136 v 0.02364 c 0,0.578202 -0.105482,1.117247 -0.316442,1.617133 -0.21096,0.499886 -0.509765,0.93345 -0.896057,1.300691 -0.386995,0.367242 -0.848076,0.656167 -1.383241,0.867128 -0.535162,0.210961 -1.122892,0.316442 -1.763535,0.316442 h -2.847266 v -8.202436" />
    <path
       inkscape:connector-curvature="0"
       id="path564"
       style="fill:#34bde6;fill-opacity:1;fill-rule:nonzero;stroke:none;stroke-width:0.03527778"
       d="m -87.711088,58.079039 c 0.468487,0 0.900642,-0.08749 1.294694,-0.263525 0.394758,-0.176036 0.732366,-0.415925 1.013883,-0.720372 0.28081,-0.3048 0.50165,-0.660047 0.66181,-1.066447 0.159808,-0.4064 0.23989,-0.843844 0.23989,-1.312686 v -0.02328 c 0,-0.468842 -0.08008,-0.90805 -0.23989,-1.317978 -0.16016,-0.410281 -0.384879,-0.767997 -0.673804,-1.072445 -0.289279,-0.304447 -0.631121,-0.546805 -1.025525,-0.726369 -0.394406,-0.179917 -0.825854,-0.269875 -1.294696,-0.269875 -0.468842,0 -0.900287,0.08784 -1.295045,0.263878 -0.394407,0.175683 -0.732367,0.415925 -1.013532,0.720725 -0.28081,0.3048 -0.50165,0.660047 -0.66181,1.066094 -0.160515,0.4064 -0.240242,0.843845 -0.240242,1.312333 v 0.02364 c 0,0.469194 0.07973,0.908402 0.240242,1.31833 0.16016,0.409928 0.384527,0.767644 0.674158,1.072092 0.288571,0.3048 0.630412,0.546805 1.025171,0.726722 0.394054,0.179917 0.826206,0.269169 1.294696,0.269169 z m -0.02363,0.855486 c -0.624769,0 -1.193094,-0.113241 -1.704975,-0.339725 -0.511876,-0.226836 -0.951084,-0.533047 -1.317974,-0.919691 -0.367594,-0.386997 -0.650523,-0.836084 -0.849842,-1.347964 -0.199329,-0.511175 -0.298812,-1.048456 -0.298812,-1.611136 v -0.02328 c 0,-0.562681 0.1016,-1.101725 0.3048,-1.617134 0.2032,-0.515408 0.487891,-0.966611 0.855133,-1.353255 0.367242,-0.386645 0.808919,-0.695325 1.324327,-0.925689 0.51576,-0.230364 1.085498,-0.345722 1.710973,-0.345722 0.624769,0 1.193445,0.113241 1.70462,0.339725 0.51153,0.226836 0.95109,0.5334 1.318332,0.920044 0.367242,0.386645 0.650168,0.835731 0.849842,1.347258 0.199318,0.511881 0.298801,1.048809 0.298801,1.611136 0.0074,0.0085 0.0074,0.01588 0,0.02363 0,0.562328 -0.101951,1.101373 -0.3048,1.617134 -0.2032,0.515761 -0.488595,0.966964 -0.855485,1.353608 -0.367241,0.386645 -0.808566,0.694972 -1.323975,0.925689 -0.51576,0.230011 -1.086202,0.345369 -1.710973,0.345369" />
    <path
       inkscape:connector-curvature="0"
       id="path566"
       style="fill:#34bde6;fill-opacity:1;fill-rule:nonzero;stroke:none;stroke-width:0.03527778"
       d="m -77.832959,58.934525 c -0.594077,0 -1.140884,-0.109361 -1.640769,-0.328083 -0.499885,-0.218369 -0.93345,-0.517172 -1.300691,-0.896055 -0.367242,-0.379237 -0.654402,-0.826206 -0.861132,-1.341967 -0.207079,-0.515408 -0.310443,-1.066447 -0.310443,-1.652411 v -0.02328 c 0,-0.578203 0.103364,-1.125009 0.310443,-1.640417 0.20673,-0.515408 0.49389,-0.966964 0.861132,-1.353608 0.367241,-0.386292 0.804333,-0.691445 1.312685,-0.913695 0.507293,-0.222955 1.062215,-0.33408 1.663348,-0.33408 0.375354,0 0.713317,0.0314 1.013883,0.09384 0.300919,0.06244 0.580319,0.150283 0.837494,0.263525 0.257881,0.113594 0.496358,0.250119 0.715433,0.41028 0.218369,0.159808 0.429332,0.337961 0.632532,0.5334 l -0.632532,0.67945 c -0.351367,-0.328083 -0.72884,-0.597958 -1.130652,-0.808567 -0.402873,-0.210961 -0.884766,-0.316794 -1.447448,-0.316794 -0.452967,0 -0.872773,0.08643 -1.259768,0.258233 -0.386647,0.171803 -0.722842,0.409928 -1.007534,0.714375 -0.285398,0.305153 -0.508,0.662517 -0.667808,1.072445 -0.160515,0.41028 -0.240594,0.849489 -0.240594,1.317977 v 0.02364 c 0,0.476955 0.08008,0.920044 0.240594,1.329972 0.159808,0.41028 0.38241,0.767644 0.667808,1.072444 0.284692,0.304447 0.620887,0.544336 1.007534,0.720372 0.386995,0.176036 0.806801,0.263525 1.259768,0.263525 0.562682,0 1.046692,-0.103364 1.45274,-0.310444 0.4064,-0.206728 0.805037,-0.49777 1.19521,-0.872772 l 0.6096,0.597252 c -0.21096,0.219075 -0.431448,0.416278 -0.662165,0.591962 -0.230716,0.175683 -0.478718,0.325966 -0.744008,0.451202 -0.265994,0.124884 -0.550685,0.222603 -0.855837,0.293159 -0.304448,0.0702 -0.644173,0.105127 -1.018823,0.105127" />
    <path
       inkscape:connector-curvature="0"
       id="path568"
       style="fill:#34bde6;fill-opacity:1;fill-rule:nonzero;stroke:none;stroke-width:0.03527778"
       d="m -70.767526,51.446817 h -2.753431 v -0.855133 h 6.433256 v 0.855133 h -2.754135 v 7.347303 h -0.92569 v -7.347303" />
    <path
       inkscape:connector-curvature="0"
       id="path570"
       style="fill:#34bde6;fill-opacity:1;fill-rule:nonzero;stroke:none;stroke-width:0.03527778"
       d="m -61.510636,58.079039 c 0.468842,0 0.900642,-0.08749 1.295045,-0.263525 0.394407,-0.176036 0.732015,-0.415925 1.013532,-0.720372 0.28081,-0.3048 0.502002,-0.660047 0.66181,-1.066447 0.160163,-0.4064 0.240242,-0.843844 0.240242,-1.312686 v -0.02328 c 0,-0.468842 -0.08008,-0.90805 -0.240242,-1.317978 -0.159808,-0.410281 -0.384879,-0.767997 -0.673804,-1.072445 -0.288925,-0.304447 -0.630766,-0.546805 -1.025173,-0.726369 -0.394406,-0.179917 -0.826206,-0.269875 -1.294693,-0.269875 -0.468842,0 -0.900642,0.08784 -1.295049,0.263878 -0.394406,0.175683 -0.732366,0.415925 -1.013531,0.720725 -0.281162,0.3048 -0.502002,0.660047 -0.66181,1.066094 -0.160515,0.4064 -0.240594,0.843845 -0.240594,1.312333 v 0.02364 c 0,0.469194 0.08008,0.908402 0.240594,1.31833 0.159808,0.409928 0.384881,0.767644 0.673806,1.072092 0.288925,0.3048 0.630412,0.546805 1.025171,0.726722 0.394406,0.179917 0.826206,0.269169 1.294696,0.269169 z m -0.02328,0.855486 c -0.625124,0 -1.193449,-0.113241 -1.704975,-0.339725 -0.511882,-0.226836 -0.95109,-0.533047 -1.31798,-0.919691 -0.367597,-0.386997 -0.650523,-0.836084 -0.850197,-1.347964 -0.198966,-0.511175 -0.29845,-1.048456 -0.29845,-1.611136 v -0.02328 c 0,-0.562681 0.1016,-1.101725 0.3048,-1.617134 0.202849,-0.515408 0.487892,-0.966611 0.855134,-1.353255 0.367241,-0.386645 0.808918,-0.695325 1.324327,-0.925689 0.515763,-0.230364 1.085498,-0.345722 1.710621,-0.345722 0.62512,0 1.193445,0.113241 1.704975,0.339725 0.511527,0.226836 0.951087,0.5334 1.318329,0.920044 0.367241,0.386645 0.649816,0.835731 0.849841,1.347258 0.198967,0.511881 0.298805,1.048809 0.298805,1.611136 0.0074,0.0085 0.0074,0.01588 0,0.02363 0,0.562328 -0.102307,1.101373 -0.305155,1.617134 -0.2032,0.515761 -0.488595,0.966964 -0.855485,1.353608 -0.367242,0.386645 -0.808567,0.694972 -1.323623,0.925689 -0.51576,0.230011 -1.086554,0.345369 -1.71097,0.345369" />
    <path
       inkscape:connector-curvature="0"
       id="path572"
       style="fill:#34bde6;fill-opacity:1;fill-rule:nonzero;stroke:none;stroke-width:0.03527778"
       d="m -51.930603,54.774923 c 0.305152,0 0.587021,-0.03916 0.845254,-0.117475 0.25894,-0.07761 0.481542,-0.189089 0.669925,-0.333728 0.188383,-0.144286 0.334788,-0.320322 0.440973,-0.52705 0.105127,-0.207081 0.158398,-0.443442 0.158398,-0.709083 v -0.02364 c 0,-0.507647 -0.184504,-0.90417 -0.55245,-1.189214 -0.367948,-0.285397 -0.884766,-0.42792 -1.550458,-0.42792 h -2.537532 v 3.328106 z m -3.451579,-4.183239 h 3.526721 c 0.508,0 0.95885,0.07197 1.353608,0.216606 0.394404,0.144639 0.720371,0.345722 0.978604,0.603602 0.2032,0.2032 0.35913,0.441325 0.46849,0.714728 0.10936,0.273403 0.164393,0.57397 0.164393,0.902406 v 0.02328 c 0,0.343958 -0.05503,0.650522 -0.164393,0.919691 -0.10936,0.269876 -0.263525,0.503767 -0.462844,0.703439 -0.198966,0.19932 -0.435329,0.363009 -0.708731,0.492125 -0.273757,0.128412 -0.570442,0.220487 -0.890765,0.275167 l 2.51954,3.351389 h -1.137002 l -2.37843,-3.187347 h -2.343502 v 3.187347 h -0.925689 v -8.202436" />
    <path
       inkscape:connector-curvature="0"
       id="path574"
       style="fill:#6fc72d;fill-opacity:1;fill-rule:nonzero;stroke:none;stroke-width:0.03527778"
       d="m -131.43789,64.275228 c -0.20109,0 -0.3863,-0.03739 -0.55563,-0.111125 -0.16933,-0.07408 -0.31609,-0.17533 -0.44062,-0.303741 -0.12453,-0.128059 -0.22154,-0.279753 -0.29139,-0.454378 -0.0702,-0.174272 -0.10548,-0.361245 -0.10548,-0.559506 v -0.0078 c 0,-0.195791 0.0353,-0.381 0.10548,-0.555625 0.0699,-0.174625 0.16686,-0.327025 0.29139,-0.457905 0.12453,-0.131234 0.27235,-0.234245 0.4445,-0.309739 0.1718,-0.07585 0.35948,-0.113242 0.56339,-0.113242 0.127,0 0.2413,0.01058 0.34325,0.03175 0.10195,0.02117 0.1965,0.05115 0.28363,0.08925 0.0871,0.03845 0.16828,0.08467 0.24236,0.138994 0.0741,0.05433 0.14535,0.1143 0.21414,0.180623 l -0.21414,0.230054 c -0.11888,-0.111125 -0.24694,-0.202495 -0.38276,-0.273756 -0.13653,-0.07126 -0.29951,-0.106891 -0.49036,-0.106891 -0.15346,0 -0.29563,0.02893 -0.42651,0.08714 -0.13123,0.05785 -0.24448,0.138641 -0.34114,0.242005 -0.097,0.103011 -0.17215,0.224014 -0.22613,0.363361 -0.0543,0.138642 -0.0815,0.287514 -0.0815,0.446264 v 0.0078 c 0,0.161219 0.0272,0.311503 0.0815,0.450144 0.054,0.139348 0.12912,0.259998 0.22613,0.363009 0.0967,0.103011 0.20991,0.184503 0.34114,0.244122 0.13088,0.05997 0.27305,0.08925 0.42651,0.08925 0.19085,0 0.35454,-0.03492 0.49212,-0.105128 0.13759,-0.06985 0.27235,-0.168628 0.40464,-0.295275 l 0.20637,0.202142 c -0.0716,0.07444 -0.1464,0.141111 -0.22436,0.200377 -0.0776,0.05962 -0.16193,0.110773 -0.25189,0.152753 -0.0896,0.04233 -0.18626,0.0755 -0.28963,0.09913 -0.10301,0.02399 -0.21837,0.03598 -0.34501,0.03598" />
    <path
       inkscape:connector-curvature="0"
       id="path576"
       style="fill:#6fc72d;fill-opacity:1;fill-rule:nonzero;stroke:none;stroke-width:0.03527778"
       d="m -128.16623,62.866587 c 0.10336,0 0.19861,-0.01305 0.28645,-0.03986 0.0875,-0.02646 0.16299,-0.06421 0.22649,-0.113242 0.0635,-0.04868 0.11359,-0.10795 0.14922,-0.178153 0.0356,-0.0702 0.054,-0.150283 0.054,-0.240241 v -0.0078 c 0,-0.172156 -0.0624,-0.306211 -0.18733,-0.402873 -0.12453,-0.09662 -0.29951,-0.144602 -0.52493,-0.144602 h -0.85902 v 1.126772 z m -1.16876,-1.416756 h 1.19416 c 0.17215,0 0.32491,0.02469 0.45861,0.07338 0.13335,0.04904 0.24377,0.117475 0.33126,0.204611 0.0684,0.06844 0.12171,0.149578 0.15839,0.241653 0.0374,0.09278 0.0557,0.194733 0.0557,0.305858 v 0.0078 c 0,0.116769 -0.0183,0.220486 -0.0557,0.311502 -0.0367,0.09137 -0.0889,0.170745 -0.15663,0.238478 -0.0674,0.06738 -0.14746,0.122767 -0.24024,0.166511 -0.0924,0.04339 -0.19297,0.07479 -0.30127,0.09313 l 0.85337,1.134886 h -0.38524 l -0.80539,-1.079185 h -0.7934 v 1.079148 h -0.31362 v -2.777772" />
    <path
       inkscape:connector-curvature="0"
       id="path578"
       style="fill:#6fc72d;fill-opacity:1;fill-rule:nonzero;stroke:none;stroke-width:0.03527778"
       d="m -126.0217,61.449831 h 2.00766 v 0.28187 h -1.69439 v 0.95638 h 1.51553 v 0.281517 h -1.51553 v 0.976136 h 1.71379 v 0.281869 h -2.02706 v -2.777772" />
    <path
       inkscape:connector-curvature="0"
       id="path580"
       style="fill:#6fc72d;fill-opacity:1;fill-rule:nonzero;stroke:none;stroke-width:0.03527778"
       d="m -121.11738,63.211956 -0.63077,-1.416755 -0.635,1.416755 z m -0.77364,-1.78188 h 0.29351 l 1.26577,2.797527 h -0.33726 l -0.32561,-0.73413 h -1.51166 l -0.32914,0.73413 h -0.32173 l 1.26612,-2.797527" />
    <path
       inkscape:connector-curvature="0"
       id="path582"
       style="fill:#6fc72d;fill-opacity:1;fill-rule:nonzero;stroke:none;stroke-width:0.03527778"
       d="m -118.60631,61.739815 h -0.93239 v -0.289984 h 2.17805 v 0.289984 h -0.93239 v 2.487788 h -0.31327 v -2.487788" />
    <path
       inkscape:connector-curvature="0"
       id="path584"
       style="fill:#6fc72d;fill-opacity:1;fill-rule:nonzero;stroke:none;stroke-width:0.03527778"
       d="m -116.29738,64.227603 h 0.31364 v -2.777712 h -0.31364 z" />
    <path
       inkscape:connector-curvature="0"
       id="path586"
       style="fill:#6fc72d;fill-opacity:1;fill-rule:nonzero;stroke:none;stroke-width:0.03527778"
       d="m -114.72575,61.449831 h 0.29386 l 1.74943,2.226381 v -2.226381 h 0.30586 v 2.777772 h -0.25012 l -1.79353,-2.277886 v 2.277886 h -0.3055 v -2.777772" />
    <path
       inkscape:connector-curvature="0"
       id="path588"
       style="fill:#6fc72d;fill-opacity:1;fill-rule:nonzero;stroke:none;stroke-width:0.03527778"
       d="m -109.85742,64.275228 c -0.21943,0 -0.41592,-0.03739 -0.58914,-0.111125 -0.17321,-0.07408 -0.32138,-0.176036 -0.4445,-0.305505 -0.12276,-0.129822 -0.21696,-0.281164 -0.28187,-0.454731 -0.0646,-0.172861 -0.097,-0.359128 -0.097,-0.557389 v -0.0078 c 0,-0.1905 0.0335,-0.37218 0.1009,-0.545747 0.0681,-0.173214 0.16263,-0.325614 0.28398,-0.458258 0.12206,-0.131939 0.26811,-0.237067 0.43851,-0.315384 0.17039,-0.07796 0.36018,-0.117122 0.56938,-0.117122 0.11642,0 0.22295,0.0081 0.31962,0.02399 0.0963,0.01588 0.18626,0.03951 0.26952,0.07161 0.0833,0.0314 0.16122,0.07056 0.23389,0.116769 0.073,0.04621 0.14393,0.09843 0.21237,0.156634 l -0.20214,0.238125 c -0.0529,-0.04763 -0.10866,-0.09066 -0.16686,-0.129117 -0.0579,-0.0381 -0.12065,-0.07126 -0.18839,-0.09913 -0.0674,-0.02787 -0.14146,-0.04939 -0.22225,-0.06526 -0.0804,-0.01587 -0.17004,-0.02364 -0.2674,-0.02364 -0.15346,0 -0.29493,0.02999 -0.4251,0.09102 -0.12912,0.06068 -0.24059,0.142875 -0.33302,0.245886 -0.0928,0.103011 -0.16546,0.224367 -0.21837,0.363361 -0.0529,0.138642 -0.0794,0.285045 -0.0794,0.438503 v 0.0078 c 0,0.166511 0.0261,0.319969 0.0776,0.460375 0.0515,0.140053 0.12488,0.261761 0.22013,0.365125 0.0952,0.103011 0.21026,0.183444 0.34537,0.242005 0.13476,0.05821 0.28646,0.08714 0.45614,0.08714 0.15875,0 0.30833,-0.02716 0.44838,-0.08149 0.14006,-0.05397 0.25788,-0.119592 0.35313,-0.196145 v -0.690742 h -0.8449 v -0.281517 h 1.14653 v 1.107017 c -0.12947,0.116769 -0.28928,0.216252 -0.47837,0.299508 -0.18909,0.08325 -0.40146,0.125236 -0.63676,0.125236" />
    <path
       inkscape:connector-curvature="0"
       id="path590"
       style="fill:#6fc72d;fill-opacity:1;fill-rule:nonzero;stroke:none;stroke-width:0.03527778"
       d="m -105.00038,64.267114 c -0.2226,0 -0.42545,-0.03634 -0.60924,-0.109008 -0.18415,-0.07302 -0.35913,-0.184503 -0.52564,-0.335139 l 0.19438,-0.230364 c 0.14534,0.132292 0.2921,0.230717 0.44027,0.295275 0.14816,0.06526 0.31891,0.09737 0.51188,0.09737 0.18768,0 0.33796,-0.0441 0.45049,-0.132997 0.11254,-0.0882 0.16863,-0.201436 0.16863,-0.33902 v -0.0081 c 0,-0.0635 -0.0109,-0.12065 -0.0318,-0.172509 -0.0212,-0.05151 -0.0586,-0.09843 -0.11148,-0.140758 -0.0533,-0.04233 -0.127,-0.08079 -0.22048,-0.115358 -0.0942,-0.03387 -0.21449,-0.06738 -0.36019,-0.09913 -0.1591,-0.03387 -0.29774,-0.07408 -0.41557,-0.118886 -0.11818,-0.04515 -0.21555,-0.09913 -0.29245,-0.16263 -0.0769,-0.06315 -0.13371,-0.137584 -0.1711,-0.22225 -0.037,-0.08431 -0.0557,-0.183445 -0.0557,-0.297392 v -0.0085 c 0,-0.10795 0.0222,-0.208491 0.0677,-0.301272 0.0448,-0.09243 0.10795,-0.172508 0.19015,-0.239889 0.0822,-0.06738 0.17886,-0.12065 0.28998,-0.15875 0.11077,-0.03845 0.23248,-0.0575 0.36513,-0.0575 0.2032,0 0.381,0.02858 0.5334,0.08537 0.15204,0.0568 0.29951,0.142169 0.44238,0.255764 l -0.18239,0.242005 c -0.12982,-0.105833 -0.25999,-0.182386 -0.39087,-0.230011 -0.13124,-0.04763 -0.26776,-0.07126 -0.41099,-0.07126 -0.18239,0 -0.32632,0.04304 -0.43215,0.128764 -0.10584,0.08573 -0.15875,0.192264 -0.15875,0.319616 v 0.0078 c 0,0.06597 0.0106,0.124883 0.0314,0.176388 0.0215,0.05186 0.0596,0.09913 0.11535,0.143228 0.0557,0.04339 0.1323,0.08326 0.23001,0.118886 0.0981,0.03563 0.22367,0.0695 0.37713,0.101248 0.30938,0.06844 0.53727,0.163688 0.68438,0.285397 0.14676,0.121708 0.22049,0.288219 0.22049,0.499886 v 0.0081 c 0,0.118886 -0.024,0.226836 -0.0706,0.323145 -0.0473,0.09701 -0.11218,0.179564 -0.19473,0.248003 -0.0825,0.06879 -0.18204,0.122061 -0.2981,0.15875 -0.11677,0.03739 -0.24377,0.05574 -0.381,0.05574" />
    <path
       inkscape:connector-curvature="0"
       id="path592"
       style="fill:#6fc72d;fill-opacity:1;fill-rule:nonzero;stroke:none;stroke-width:0.03527778"
       d="m -101.86171,64.271348 c -0.17216,0 -0.32879,-0.02611 -0.47061,-0.07761 -0.14111,-0.05151 -0.26317,-0.128411 -0.36477,-0.230011 -0.1016,-0.101953 -0.18027,-0.228248 -0.23601,-0.378884 -0.0554,-0.150989 -0.0833,-0.324203 -0.0833,-0.519994 v -1.615017 h 0.31327 v 1.594908 c 0,0.301978 0.0748,0.533048 0.22437,0.69462 0.14922,0.161572 0.35771,0.242005 0.62477,0.242005 0.25647,0 0.46037,-0.07655 0.61101,-0.230011 0.15063,-0.153458 0.22613,-0.382058 0.22613,-0.686505 v -1.615017 h 0.31362 v 1.591381 c 0,0.203552 -0.0279,0.382058 -0.0833,0.535869 -0.0554,0.153106 -0.13441,0.281517 -0.23601,0.384528 -0.10195,0.103011 -0.22366,0.180622 -0.36512,0.232128 -0.14182,0.05151 -0.29986,0.07761 -0.47414,0.07761" />
    <path
       inkscape:connector-curvature="0"
       id="path594"
       style="fill:#6fc72d;fill-opacity:1;fill-rule:nonzero;stroke:none;stroke-width:0.03527778"
       d="m -98.560418,64.267114 c -0.22225,0 -0.42545,-0.03634 -0.609245,-0.109008 -0.183798,-0.07302 -0.35913,-0.184503 -0.52564,-0.335139 l 0.194382,-0.230364 c 0.145343,0.132292 0.2921,0.230717 0.440266,0.295275 0.148519,0.06526 0.318911,0.09737 0.511879,0.09737 0.188032,0 0.337963,-0.0441 0.450498,-0.132997 0.112535,-0.0882 0.168627,-0.201436 0.168627,-0.33902 v -0.0081 c 0,-0.0635 -0.01058,-0.12065 -0.03139,-0.172509 -0.02151,-0.05151 -0.05856,-0.09843 -0.111832,-0.140758 -0.05327,-0.04233 -0.126648,-0.08079 -0.220485,-0.115358 -0.09419,-0.03387 -0.214138,-0.06738 -0.359833,-0.09913 -0.159457,-0.03387 -0.298098,-0.07408 -0.415925,-0.118886 -0.118182,-0.04515 -0.215548,-0.09913 -0.292455,-0.16263 -0.0769,-0.06315 -0.133702,-0.137584 -0.170743,-0.22225 -0.03739,-0.08431 -0.05609,-0.183445 -0.05609,-0.297392 v -0.0085 c 0,-0.10795 0.02257,-0.208491 0.06773,-0.301272 0.04516,-0.09243 0.108302,-0.172508 0.1905,-0.239889 0.0822,-0.06738 0.178507,-0.12065 0.289984,-0.15875 0.110418,-0.03845 0.232126,-0.0575 0.364773,-0.0575 0.203552,0 0.381352,0.02858 0.5334,0.08537 0.152045,0.0568 0.29986,0.142169 0.442735,0.255764 l -0.182385,0.242005 c -0.129823,-0.105833 -0.26035,-0.182386 -0.391232,-0.230011 -0.130881,-0.04763 -0.267406,-0.07126 -0.410633,-0.07126 -0.182385,0 -0.326673,0.04304 -0.432507,0.128764 -0.105833,0.08573 -0.15875,0.192264 -0.15875,0.319616 v 0.0078 c 0,0.06597 0.01093,0.124883 0.03175,0.176388 0.02117,0.05186 0.05962,0.09913 0.115007,0.143228 0.05574,0.04339 0.132643,0.08326 0.23001,0.118886 0.09843,0.03563 0.223663,0.0695 0.377121,0.101248 0.309737,0.06844 0.537634,0.163688 0.684387,0.285397 0.146757,0.121708 0.220488,0.288219 0.220488,0.499886 v 0.0081 c 0,0.118886 -0.02363,0.226836 -0.07056,0.323145 -0.04727,0.09701 -0.111832,0.179564 -0.194382,0.248003 -0.08255,0.06879 -0.182033,0.122061 -0.29845,0.15875 -0.116768,0.03739 -0.243768,0.05574 -0.381,0.05574" />
    <path
       inkscape:connector-curvature="0"
       id="path596"
       style="fill:#6fc72d;fill-opacity:1;fill-rule:nonzero;stroke:none;stroke-width:0.03527778"
       d="m -95.798871,61.739815 h -0.932392 v -0.289984 h 2.17805 v 0.289984 h -0.932392 v 2.487788 h -0.313266 v -2.487788" />
    <path
       inkscape:connector-curvature="0"
       id="path598"
       style="fill:#6fc72d;fill-opacity:1;fill-rule:nonzero;stroke:none;stroke-width:0.03527778"
       d="m -91.716176,63.211956 -0.630767,-1.416755 -0.635351,1.416755 z m -0.773642,-1.78188 h 0.293865 l 1.265415,2.797527 h -0.337256 l -0.325261,-0.73413 h -1.511654 l -0.329494,0.73413 h -0.321733 l 1.266118,-2.797527" />
    <path
       inkscape:connector-curvature="0"
       id="path600"
       style="fill:#6fc72d;fill-opacity:1;fill-rule:nonzero;stroke:none;stroke-width:0.03527778"
       d="m -89.911363,64.227603 h 0.31364 v -2.777712 h -0.31364 z" />
    <path
       inkscape:connector-curvature="0"
       id="path602"
       style="fill:#6fc72d;fill-opacity:1;fill-rule:nonzero;stroke:none;stroke-width:0.03527778"
       d="m -88.339386,61.449831 h 0.293865 l 1.749425,2.226381 v -2.226381 h 0.305858 v 2.777772 h -0.250121 l -1.793521,-2.277886 v 2.277886 h -0.305506 v -2.777772" />
    <path
       inkscape:connector-curvature="0"
       id="path604"
       style="fill:#6fc72d;fill-opacity:1;fill-rule:nonzero;stroke:none;stroke-width:0.03527778"
       d="m -82.959171,63.211956 -0.630767,-1.416755 -0.635,1.416755 z m -0.773642,-1.78188 h 0.29351 l 1.265767,2.797527 h -0.337257 l -0.325612,-0.73413 h -1.511654 l -0.329494,0.73413 h -0.321381 l 1.266121,-2.797527" />
    <path
       inkscape:connector-curvature="0"
       id="path606"
       style="fill:#6fc72d;fill-opacity:1;fill-rule:nonzero;stroke:none;stroke-width:0.03527778"
       d="m -79.938336,63.945734 c 0.211312,0 0.37747,-0.04375 0.498827,-0.130881 0.121356,-0.08714 0.182033,-0.208844 0.182033,-0.365125 v -0.0081 c 0,-0.150636 -0.06173,-0.267759 -0.185915,-0.351014 -0.123825,-0.08326 -0.307268,-0.124883 -0.55033,-0.124883 h -0.874538 v 0.980016 z m -0.110419,-1.261533 c 0.189794,0 0.342898,-0.04163 0.460373,-0.124531 0.117475,-0.08325 0.176389,-0.206022 0.176389,-0.369711 v -0.0078 c 0,-0.137231 -0.05256,-0.246239 -0.158398,-0.328083 -0.105478,-0.08184 -0.257527,-0.122414 -0.45508,-0.122414 h -0.842788 v 0.9525 z m -1.132771,-1.23437 h 1.17969 c 0.15875,0 0.299154,0.02187 0.422275,0.06562 0.122412,0.04339 0.223308,0.103364 0.302683,0.180269 0.118534,0.123825 0.178504,0.271992 0.178504,0.443089 v 0.0081 c 0,0.08996 -0.0127,0.169686 -0.03775,0.239536 -0.0254,0.0702 -0.05891,0.130881 -0.101249,0.182739 -0.04233,0.05115 -0.08925,0.0949 -0.140051,0.130528 -0.05186,0.03563 -0.10513,0.06491 -0.160515,0.0889 0.08184,0.02364 0.15875,0.05503 0.231775,0.09349 0.07232,0.03845 0.135115,0.08396 0.187677,0.137231 0.05327,0.05292 0.0956,0.115711 0.127,0.188736 0.0314,0.07267 0.04727,0.156633 0.04727,0.252236 v 0.0081 c 0,0.119238 -0.02328,0.225777 -0.07091,0.319969 -0.04798,0.09384 -0.11571,0.173567 -0.203906,0.238125 -0.0889,0.06526 -0.195085,0.115006 -0.31891,0.149225 -0.124532,0.03457 -0.261409,0.05186 -0.411692,0.05186 h -1.2319 V 61.44981" />
    <path
       inkscape:connector-curvature="0"
       id="path608"
       style="fill:#6fc72d;fill-opacity:1;fill-rule:nonzero;stroke:none;stroke-width:0.03527778"
       d="m -77.872824,61.449831 h 0.313621 v 2.487789 h 1.56351 v 0.289983 h -1.877131 v -2.777772" />
    <path
       inkscape:connector-curvature="0"
       id="path610"
       style="fill:#6fc72d;fill-opacity:1;fill-rule:nonzero;stroke:none;stroke-width:0.03527778"
       d="m -74.972636,61.449831 h 2.00801 v 0.28187 h -1.694392 v 0.95638 h 1.515534 v 0.281517 h -1.515534 v 0.976136 h 1.713794 v 0.281869 h -2.027412 v -2.777772" />
    <path
       inkscape:connector-curvature="0"
       id="path612"
       style="fill:#6fc72d;fill-opacity:1;fill-rule:nonzero;stroke:none;stroke-width:0.03527778"
       d="m -70.234478,61.449831 h 1.99531 v 0.289984 h -1.682043 v 0.995891 h 1.503892 v 0.281517 h -1.503892 v 1.21038 h -0.313267 v -2.777772" />
    <path
       inkscape:connector-curvature="0"
       id="path614"
       style="fill:#6fc72d;fill-opacity:1;fill-rule:nonzero;stroke:none;stroke-width:0.03527778"
       d="m -66.076641,64.271348 c -0.171802,0 -0.328435,-0.02611 -0.470252,-0.07761 -0.141464,-0.05151 -0.263173,-0.128411 -0.364773,-0.230011 -0.1016,-0.101953 -0.18062,-0.228248 -0.23636,-0.378884 -0.05503,-0.150989 -0.08326,-0.324203 -0.08326,-0.519994 v -1.615017 h 0.313621 v 1.594908 c 0,0.301978 0.07479,0.533048 0.224367,0.69462 0.149225,0.161572 0.357716,0.242005 0.624416,0.242005 0.256821,0 0.460375,-0.07655 0.611362,-0.230011 0.150638,-0.153458 0.226132,-0.382058 0.226132,-0.686505 v -1.615017 h 0.313618 v 1.591381 c 0,0.203552 -0.02787,0.382058 -0.08325,0.535869 -0.05539,0.153106 -0.134763,0.281517 -0.236009,0.384528 -0.101954,0.103011 -0.223663,0.180622 -0.365125,0.232128 -0.141816,0.05151 -0.299863,0.07761 -0.474488,0.07761" />
    <path
       inkscape:connector-curvature="0"
       id="path616"
       style="fill:#6fc72d;fill-opacity:1;fill-rule:nonzero;stroke:none;stroke-width:0.03527778"
       d="m -62.997594,61.739815 h -0.93204 v -0.289984 h 2.17805 v 0.289984 h -0.932392 v 2.487788 h -0.313618 v -2.487788" />
    <path
       inkscape:connector-curvature="0"
       id="path618"
       style="fill:#6fc72d;fill-opacity:1;fill-rule:nonzero;stroke:none;stroke-width:0.03527778"
       d="m -59.604932,64.271348 c -0.172154,0 -0.328787,-0.02611 -0.470252,-0.07761 -0.141817,-0.05151 -0.263173,-0.128411 -0.365125,-0.230011 -0.1016,-0.101953 -0.180269,-0.228248 -0.236009,-0.378884 -0.05574,-0.150989 -0.08361,-0.324203 -0.08361,-0.519994 v -1.615017 h 0.313619 v 1.594908 c 0,0.301978 0.07479,0.533048 0.224721,0.69462 0.14887,0.161572 0.357362,0.242005 0.624417,0.242005 0.256468,0 0.460375,-0.07655 0.61101,-0.230011 0.150635,-0.153458 0.226131,-0.382058 0.226131,-0.686505 v -1.615017 h 0.313619 v 1.591381 c 0,0.203552 -0.02787,0.382058 -0.08326,0.535869 -0.05539,0.153106 -0.134408,0.281517 -0.236008,0.384528 -0.1016,0.103011 -0.22366,0.180622 -0.365125,0.232128 -0.141817,0.05151 -0.29986,0.07761 -0.474133,0.07761" />
    <path
       inkscape:connector-curvature="0"
       id="path620"
       style="fill:#6fc72d;fill-opacity:1;fill-rule:nonzero;stroke:none;stroke-width:0.03527778"
       d="m -56.090911,62.866587 c 0.103362,0 0.198612,-0.01305 0.286102,-0.03986 0.08749,-0.02646 0.162983,-0.06421 0.226835,-0.113242 0.06315,-0.04868 0.113242,-0.10795 0.149225,-0.178153 0.03528,-0.0702 0.05362,-0.150283 0.05362,-0.240241 v -0.0078 c 0,-0.172156 -0.06244,-0.306211 -0.186973,-0.402873 -0.124529,-0.09666 -0.29986,-0.144638 -0.525285,-0.144638 h -0.859015 v 1.126772 z m -1.169107,-1.416756 h 1.194507 c 0.171802,0 0.324554,0.02469 0.458258,0.07338 0.13335,0.04904 0.243769,0.117475 0.331259,0.204611 0.06879,0.06844 0.121708,0.149578 0.158395,0.241653 0.0374,0.09278 0.05609,0.194733 0.05609,0.305858 v 0.0078 c 0,0.116769 -0.01871,0.220486 -0.05609,0.311502 -0.03669,0.09137 -0.08925,0.170745 -0.156279,0.238478 -0.06738,0.06738 -0.147815,0.122767 -0.240596,0.166511 -0.09243,0.04339 -0.192617,0.07479 -0.30127,0.09313 l 0.853368,1.134886 h -0.385233 l -0.80504,-1.079148 h -0.79375 v 1.079148 h -0.313619 v -2.777772" />
    <path
       inkscape:connector-curvature="0"
       id="path622"
       style="fill:#6fc72d;fill-opacity:1;fill-rule:nonzero;stroke:none;stroke-width:0.03527778"
       d="m -53.946728,61.449831 h 2.007304 v 0.28187 h -1.694037 v 0.95638 h 1.515533 v 0.281517 h -1.515533 v 0.976136 h 1.714145 v 0.281869 h -2.027412 v -2.777772" />
    <path
       inkscape:connector-curvature="0"
       id="path624"
       style="fill:#6fc72d;fill-opacity:1;fill-rule:nonzero;stroke:none;stroke-width:0.03527778"
       d="m -49.887668,64.267114 c -0.222601,0 -0.42545,-0.03634 -0.609248,-0.109008 -0.18415,-0.07302 -0.359478,-0.184503 -0.525991,-0.335139 l 0.194733,-0.230364 c 0.145346,0.132292 0.2921,0.230717 0.440267,0.295275 0.148521,0.06526 0.318558,0.09737 0.511881,0.09737 0.187677,0 0.337608,-0.0441 0.450498,-0.132997 0.112535,-0.0882 0.168627,-0.201436 0.168627,-0.33902 v -0.0081 c 0,-0.0635 -0.0113,-0.12065 -0.03175,-0.172509 -0.02151,-0.05151 -0.05856,-0.09843 -0.111831,-0.140758 -0.05292,-0.04233 -0.126646,-0.08079 -0.220486,-0.115358 -0.09384,-0.03387 -0.214135,-0.06738 -0.359833,-0.09913 -0.159102,-0.03387 -0.298098,-0.07408 -0.415925,-0.118886 -0.118181,-0.04515 -0.215193,-0.09913 -0.292452,-0.16263 -0.07691,-0.06315 -0.133704,-0.137584 -0.170746,-0.22225 -0.03739,-0.08431 -0.05574,-0.183445 -0.05574,-0.297392 v -0.0085 c 0,-0.10795 0.02223,-0.208491 0.06773,-0.301272 0.0448,-0.09243 0.108302,-0.172508 0.190146,-0.239889 0.08185,-0.06738 0.178506,-0.12065 0.289631,-0.15875 0.111125,-0.03845 0.232482,-0.0575 0.365125,-0.0575 0.203552,0 0.381352,0.02858 0.533752,0.08537 0.152048,0.0568 0.299508,0.142169 0.442383,0.255764 l -0.182737,0.242005 c -0.129471,-0.105833 -0.259646,-0.182386 -0.390879,-0.230011 -0.130879,-0.04763 -0.267759,-0.07126 -0.410634,-0.07126 -0.182737,0 -0.32667,0.04304 -0.432503,0.128764 -0.105482,0.08573 -0.15875,0.192264 -0.15875,0.319616 v 0.0078 c 0,0.06597 0.01058,0.124883 0.03175,0.176388 0.02151,0.05186 0.05962,0.09913 0.115003,0.143228 0.05574,0.04339 0.132647,0.08326 0.230365,0.118886 0.09807,0.03563 0.223308,0.0695 0.377119,0.101248 0.309388,0.06844 0.537281,0.163688 0.684038,0.285397 0.146753,0.121708 0.220485,0.288219 0.220485,0.499886 v 0.0081 c 0,0.118886 -0.02363,0.226836 -0.07056,0.323145 -0.04727,0.09701 -0.111828,0.179564 -0.194378,0.248003 -0.08255,0.06879 -0.182034,0.122061 -0.298099,0.15875 -0.116768,0.03739 -0.244123,0.05574 -0.381,0.05574" />
  </g>
</svg>
