<?xml version="1.0" encoding="UTF-8" standalone="no"?>
<!-- Created with Inkscape (http://www.inkscape.org/) -->

<svg
   xmlns:dc="http://purl.org/dc/elements/1.1/"
   xmlns:cc="http://creativecommons.org/ns#"
   xmlns:rdf="http://www.w3.org/1999/02/22-rdf-syntax-ns#"
   xmlns:svg="http://www.w3.org/2000/svg"
   xmlns="http://www.w3.org/2000/svg"
   xmlns:sodipodi="http://sodipodi.sourceforge.net/DTD/sodipodi-0.dtd"
   xmlns:inkscape="http://www.inkscape.org/namespaces/inkscape"
   width="19.730303"
   height="17.462418"
   viewBox="0 0 5.2203092 4.6202646"
   version="1.1"
   id="svg4497"
   inkscape:version="0.92.1 r15371"
   sodipodi:docname="sensor.svg">
  <defs
     id="defs4491" />
  <sodipodi:namedview
     id="base"
     pagecolor="#ffffff"
     bordercolor="#666666"
     borderopacity="1.0"
     inkscape:pageopacity="0.0"
     inkscape:pageshadow="2"
     inkscape:zoom="22.627417"
     inkscape:cx="13.629213"
     inkscape:cy="9.2760784"
     inkscape:document-units="mm"
     inkscape:current-layer="layer1"
     showgrid="false"
     fit-margin-top="0"
     fit-margin-left="0"
     fit-margin-right="0"
     fit-margin-bottom="0"
     inkscape:window-width="1920"
     inkscape:window-height="1015"
     inkscape:window-x="0"
     inkscape:window-y="0"
     inkscape:window-maximized="1"
     units="px" />
  <metadata
     id="metadata4494">
    <rdf:RDF>
      <cc:Work
         rdf:about="">
        <dc:format>image/svg+xml</dc:format>
        <dc:type
           rdf:resource="http://purl.org/dc/dcmitype/StillImage" />
        <dc:title></dc:title>
      </cc:Work>
    </rdf:RDF>
  </metadata>
  <g
     inkscape:label="Layer 1"
     inkscape:groupmode="layer"
     id="layer1"
     transform="translate(-85.906002,-112.15696)">
    <path
       style="fill:#fefefe;fill-opacity:1;stroke:#000000;stroke-width:0.47429803;stroke-miterlimit:4;stroke-dasharray:none;stroke-opacity:1"
       d="m 86.818303,116.42405 c -0.251941,-0.26132 -0.433328,-0.55489 -0.545888,-0.8835 -0.210064,-0.61328 -0.163273,-1.27657 0.130736,-1.85324 0.110723,-0.21718 0.235048,-0.38961 0.412891,-0.57265 0.374522,-0.38543 0.825226,-0.61574 1.368076,-0.69905 0.139287,-0.0213 0.494403,-0.0241 0.632821,-0.005 0.407462,0.057 0.786397,0.20889 1.103732,0.44275 0.515608,0.38 0.849698,0.93845 0.947496,1.58381 0.02371,0.15648 0.0236,0.50686 -2.21e-4,0.66203 -0.04024,0.26219 -0.1178,0.5069 -0.23234,0.73303 -0.118182,0.23332 -0.245059,0.4099 -0.429901,0.59832 l -0.107447,0.10953 h -1.583887 -1.58389 z"
       id="path5065"
       inkscape:connector-curvature="0" />
    <path
       style="fill:#000000;stroke-width:0.01086198"
       d="m 88.421105,115.89878 c -0.04938,-0.0224 -0.109459,-0.0858 -0.131609,-0.13882 -0.03646,-0.0873 -0.0024,-0.22742 0.06998,-0.28837 0.05026,-0.0423 0.121569,-0.0659 0.185548,-0.0615 l 0.05512,0.004 0.39194,-0.5784 c 0.215567,-0.31812 0.396634,-0.5784 0.402371,-0.5784 0.0057,0 0.01284,0.006 0.01578,0.014 0.0029,0.008 -0.150341,0.284 -0.340634,0.61406 l -0.345988,0.6001 0.03073,0.0609 c 0.06691,0.13264 0.0167,0.28693 -0.113937,0.35017 -0.05977,0.0289 -0.158541,0.03 -0.219306,0.002 z"
       id="path5061"
       inkscape:connector-curvature="0" />
    <path
       style="fill:#000000;stroke-width:0.01086198"
       d="m 89.687223,114.29927 c -0.148365,-0.21887 -0.407857,-0.43592 -0.669152,-0.5597 l -0.103673,-0.0491 0.0313,-0.0561 c 0.191147,-0.34258 0.177702,-0.32221 0.2078,-0.31489 0.05502,0.0134 0.215759,0.0781 0.305804,0.12323 0.188547,0.0944 0.401385,0.25445 0.522138,0.3926 0.07155,0.0819 0.165445,0.20451 0.159892,0.20886 -0.132973,0.10421 -0.39529,0.30267 -0.404299,0.30588 -0.0068,0.002 -0.02923,-0.0204 -0.04981,-0.0508 z"
       id="path5059"
       inkscape:connector-curvature="0" />
    <path
       style="fill:#000000;stroke-width:0.01086198"
       d="m 86.889493,114.25007 c 0.054,-0.13027 0.200749,-0.33769 0.332568,-0.47007 0.07212,-0.0724 0.221834,-0.19633 0.237218,-0.19633 0.0094,0 0.09213,0.15136 0.08583,0.15699 -0.0021,0.002 -0.02858,0.0158 -0.05895,0.031 -0.16761,0.0842 -0.378564,0.25439 -0.509875,0.41143 -0.04651,0.0556 -0.08896,0.10285 -0.09435,0.10495 -0.0054,0.002 -0.002,-0.015 0.0076,-0.038 z"
       id="path5057"
       inkscape:connector-curvature="0" />
    <path
       style="fill:#000000;stroke-width:0.01086198"
       d="m 87.633942,113.595 c -0.02442,-0.0486 -0.04108,-0.0936 -0.03704,-0.10019 0.01197,-0.0194 0.240298,-0.1229 0.351801,-0.15953 0.233502,-0.0767 0.445795,-0.10554 0.700597,-0.0951 0.15932,0.007 0.322563,0.027 0.338051,0.0425 0.0046,0.005 -0.165545,0.33586 -0.187387,0.36478 -0.0017,0.002 -0.04115,-0.006 -0.08772,-0.0182 -0.153184,-0.0402 -0.243249,-0.0506 -0.432252,-0.05 -0.196754,5.9e-4 -0.310112,0.0158 -0.475057,0.0637 -0.04937,0.0143 -0.09805,0.0293 -0.108183,0.0332 -0.01467,0.006 -0.02744,-0.0108 -0.06281,-0.0812 z"
       id="path5053"
       inkscape:connector-curvature="0" />
  </g>
</svg>
